<svg width="19" height="20" viewBox="0 0 18 19" fill="none" xmlns="http://www.w3.org/2000/svg">
  <rect width="100%" height="100%" fill="white"/>
  <path d="M18.835 0C18.832 0.10534 18.8262 0.210194 18.8262 0.315048C18.8262 6.60146 18.8262 12.8877 18.8262 19.1738V19.5107H0.315534C0.210194 19.5107 0.10534 19.5107 0 19.5146V0H18.835ZM1.79175 16.8607C1.81408 16.8728 1.83592 16.8854 1.85777 16.8981C1.93641 16.8068 2.01117 16.7121 2.09418 16.6257C2.82233 15.8678 3.55049 15.1108 4.27864 14.3549C5.4466 13.1451 6.61311 11.9341 7.77815 10.7218C7.85958 10.6283 7.90592 10.5094 7.90922 10.3854C7.91634 7.38479 7.91796 4.38431 7.91408 1.38398C7.91408 1.31602 7.90534 1.24854 7.8966 1.12961C7.49563 1.55 7.1301 1.93495 6.76262 2.31845C5.16262 3.98673 3.56068 5.6534 1.9568 7.31845C1.89952 7.37251 1.8545 7.43823 1.82477 7.51116C1.79505 7.5841 1.7813 7.66256 1.78447 7.74126C1.78932 10.7008 1.79045 13.6608 1.78786 16.6214L1.79175 16.8607ZM17.6374 11.265H17.2752C14.5655 11.265 11.8553 11.2723 9.14563 11.2563C8.76602 11.2563 8.51456 11.3646 8.25146 11.6447C6.57815 13.4116 4.88301 15.1573 3.19466 16.9102L2.45777 17.6767H2.7767C5.55922 17.6767 8.34223 17.6723 11.1262 17.684C11.3883 17.684 11.5583 17.5981 11.7301 17.4189C13.3243 15.7552 14.9218 14.0948 16.5228 12.4379C16.8782 12.0646 17.2316 11.6913 17.6374 11.265Z" fill="#0079bf"/>
</svg>
