<svg width="127" height="20" viewBox="0 0 127 20" fill="none" xmlns="http://www.w3.org/2000/svg">
<g clip-path="url(#clip0_921_462)">
<path d="M18.835 0C18.832 0.10534 18.8262 0.210194 18.8262 0.315048C18.8262 6.60146 18.8262 12.8877 18.8262 19.1738V19.5107H0.315534C0.210194 19.5107 0.10534 19.5107 0 19.5146V0H18.835ZM1.79175 16.8607C1.81408 16.8728 1.83592 16.8854 1.85777 16.8981C1.93641 16.8068 2.01117 16.7121 2.09418 16.6257C2.82233 15.8678 3.55049 15.1108 4.27864 14.3549C5.4466 13.1451 6.61311 11.9341 7.77815 10.7218C7.85958 10.6283 7.90592 10.5094 7.90922 10.3854C7.91634 7.38479 7.91796 4.38431 7.91408 1.38398C7.91408 1.31602 7.90534 1.24854 7.8966 1.12961C7.49563 1.55 7.1301 1.93495 6.76262 2.31845C5.16262 3.98673 3.56068 5.6534 1.9568 7.31845C1.89952 7.37251 1.8545 7.43823 1.82477 7.51116C1.79505 7.5841 1.7813 7.66256 1.78447 7.74126C1.78932 10.7008 1.79045 13.6608 1.78786 16.6214L1.79175 16.8607ZM17.6374 11.265H17.2752C14.5655 11.265 11.8553 11.2723 9.14563 11.2563C8.76602 11.2563 8.51456 11.3646 8.25146 11.6447C6.57815 13.4116 4.88301 15.1573 3.19466 16.9102L2.45777 17.6767H2.7767C5.55922 17.6767 8.34223 17.6723 11.1262 17.684C11.3883 17.684 11.5583 17.5981 11.7301 17.4189C13.3243 15.7552 14.9218 14.0948 16.5228 12.4379C16.8782 12.0646 17.2316 11.6913 17.6374 11.265Z" fill="white"/>
<path d="M126.019 19.5631C124.499 19.5631 122.978 19.5577 121.456 19.5631C121.289 19.5631 121.202 19.5106 121.12 19.3689C119.696 16.8738 118.267 14.3806 116.833 11.8893C116.784 11.8082 116.736 11.7296 116.648 11.5873V19.5437H112.646V5.83201H112.864C114.393 5.83201 115.922 5.83492 117.45 5.82764C117.611 5.82764 117.693 5.87618 117.765 6.01744C119.072 8.46631 120.383 10.9136 121.697 13.3592C121.741 13.4514 121.803 13.534 121.879 13.6019V5.82812H126.023L126.019 19.5631Z" fill="white"/>
<path d="M63.3495 19.9998C62.767 19.9338 62.1762 19.8896 61.5956 19.7964C60.7927 19.6678 60.0213 19.4246 59.3582 18.9343C58.4471 18.261 57.9442 17.31 57.6374 16.2513C57.4917 15.745 57.4194 15.2168 57.3092 14.6765H61.6679C61.7252 14.9353 61.7684 15.1887 61.8378 15.4343C62.1383 16.4964 62.9946 17.0887 64.0956 17.0129C64.484 16.9862 64.8655 16.9299 65.1976 16.6993C65.9553 16.1722 65.9519 15.1901 65.1388 14.7537C64.6422 14.4872 64.0811 14.3168 63.5296 14.1809C62.3927 13.9003 61.2573 13.6256 60.2063 13.0911C59.4136 12.6882 58.7272 12.161 58.3082 11.3518C57.398 9.59207 58.0335 7.44255 59.7699 6.36731C60.5781 5.86634 61.4689 5.63915 62.4019 5.54206C63.3503 5.43455 64.3079 5.43455 65.2563 5.54206C66.3514 5.67507 67.4073 5.93041 68.2611 6.68915C69.0014 7.34449 69.3383 8.22362 69.5553 9.1576C69.6223 9.44547 69.6602 9.74012 69.7155 10.0566C69.6092 10.0629 69.531 10.0722 69.4524 10.0722C68.1985 10.0722 66.9446 10.0683 65.6908 10.0775C65.4966 10.0775 65.4286 10.0139 65.3927 9.83042C65.1422 8.55372 63.8801 7.91051 62.6772 8.44013C62.5607 8.48751 62.4551 8.55801 62.3666 8.64737C62.2782 8.73673 62.2088 8.84309 62.1626 8.96003C62.017 9.32896 62.1626 9.70275 62.584 9.85857C63.0801 10.0416 63.6034 10.1498 64.1126 10.2993C65.1723 10.6052 66.2485 10.8659 67.2849 11.2367C68.334 11.612 69.2145 12.2498 69.7345 13.2872C70.5961 15.0071 70.0985 17.3095 68.6019 18.5838C67.6772 19.3717 66.5878 19.7489 65.4039 19.8989C65.0762 19.9406 64.7466 19.9683 64.4175 20.0018L63.3495 19.9998Z" fill="white"/>
<path d="M94.8253 5.79443H98.9398V19.5105H98.6651C97.2495 19.5105 95.8335 19.5071 94.418 19.5148C94.2408 19.5148 94.149 19.4595 94.0617 19.3071C92.6377 16.8109 91.2087 14.3171 89.7748 11.8255C89.7319 11.7393 89.6696 11.6642 89.5927 11.6061V19.4973H85.5952V5.79734H90.618L94.7738 13.5541L94.8253 13.5464V5.79443Z" fill="white"/>
<path d="M100.358 5.79297H111.251V9.15753H104.624V10.7765H110.558V14.1619H104.617V15.958H111.246V19.4988H100.358V5.79297Z" fill="white"/>
<path d="M74.6296 5.78857H80.0355L84.4685 19.4973H79.8568L79.3185 17.3818H78.602C77.5097 17.3818 76.4175 17.3861 75.3253 17.3779C75.1481 17.3779 75.0753 17.4313 75.0258 17.6027C74.8418 18.2361 74.6374 18.8648 74.4403 19.5007H69.8787L74.6296 5.78857ZM77.2626 10.0779H77.201L76.0262 14.1842H78.3903C78.0097 12.8002 77.6364 11.4391 77.2626 10.0779Z" fill="white"/>
<path d="M49.7116 19.4963H45.3155V19.2206C45.3155 14.8449 45.3139 10.4693 45.3107 6.09388C45.3107 5.8599 45.3553 5.77786 45.6141 5.77932C47.8539 5.79097 50.0946 5.77932 52.3349 5.79C53.4825 5.7968 54.568 6.05019 55.4718 6.80942C56.8311 7.94437 57.3578 9.40407 56.9646 11.1196C56.5762 12.8215 55.4709 13.9099 53.7762 14.3546C53.3597 14.4638 52.916 14.5002 52.4835 14.5128C51.6427 14.5366 50.8014 14.5264 49.9592 14.5128C49.7534 14.5099 49.7034 14.5759 49.7044 14.7735C49.7121 16.2453 49.7087 17.7177 49.7087 19.191L49.7116 19.4963ZM49.7116 11.2711C50.4524 11.2711 51.168 11.3152 51.8796 11.2584C52.5631 11.2041 53.0447 10.6031 53.033 9.95456C53.0189 9.23174 52.5476 8.65213 51.8495 8.59534C51.1917 8.54097 50.5277 8.56281 49.867 8.54679C49.7053 8.54242 49.7107 8.64388 49.7112 8.7531C49.7112 9.21362 49.7112 9.67398 49.7112 10.1342L49.7116 11.2711Z" fill="white"/>
<path d="M31.5816 15.7401H38.2767V19.4974H27.3486V5.79932H31.5816V15.7401Z" fill="white"/>
<path d="M43.9213 5.79688V19.4983H39.7039V5.79688H43.9213Z" fill="white"/>
</g>
<defs>
<clipPath id="clip0_921_462">
<rect width="126.019" height="20" fill="white"/>
</clipPath>
</defs>
</svg>
